<svg xmlns="http://www.w3.org/2000/svg" viewBox="0 0 800 480" fill="none" aria-hidden="true">
  <defs>
    <linearGradient id="bg" x1="0" y1="0" x2="1" y2="1">
      <stop offset="0%" stop-color="#070d18"/>
      <stop offset="100%" stop-color="#0c1628"/>
    </linearGradient>
    <radialGradient id="scanGlow" cx="35%" cy="45%" r="45%">
      <stop offset="0%" stop-color="#5ec8e8" stop-opacity="0.35"/>
      <stop offset="55%" stop-color="#5ec8e8" stop-opacity="0.08"/>
      <stop offset="100%" stop-color="#5ec8e8" stop-opacity="0"/>
    </radialGradient>
    <radialGradient id="lesionGlow" cx="38%" cy="48%" r="12%">
      <stop offset="0%" stop-color="#7dd8c0" stop-opacity="0.55"/>
      <stop offset="100%" stop-color="#7dd8c0" stop-opacity="0"/>
    </radialGradient>
    <filter id="blur" x="-20%" y="-20%" width="140%" height="140%">
      <feGaussianBlur stdDeviation="8"/>
    </filter>
  </defs>
  <rect width="800" height="480" rx="20" fill="url(#bg)"/>
  <rect x="16" y="16" width="768" height="448" rx="16" stroke="#1e3a5c" stroke-opacity="0.45" stroke-width="1"/>
  <!-- Viewer -->
  <rect x="40" y="48" width="420" height="384" rx="14" fill="#050a14" stroke="#2a4a6a" stroke-opacity="0.5"/>
  <circle cx="250" cy="240" r="118" stroke="#2d5575" stroke-width="1.5" opacity="0.7"/>
  <circle cx="250" cy="240" r="92" stroke="#3d6a8a" stroke-width="1" opacity="0.5"/>
  <circle cx="250" cy="240" r="64" stroke="#4a7a9a" stroke-width="0.8" opacity="0.35"/>
  <ellipse cx="250" cy="240" rx="140" ry="140" fill="url(#scanGlow)"/>
  <ellipse cx="268" cy="228" rx="36" ry="28" fill="url(#lesionGlow)" filter="url(#blur)"/>
  <path d="M180 200 Q250 175 320 205" stroke="#5ec8e8" stroke-opacity="0.25" stroke-width="2" stroke-linecap="round"/>
  <path d="M195 270 Q250 295 305 265" stroke="#5ec8e8" stroke-opacity="0.2" stroke-width="1.5" stroke-linecap="round"/>
  <!-- AI panel -->
  <rect x="492" y="48" width="268" height="384" rx="14" fill="#0a1220" stroke="#2a4a6a" stroke-opacity="0.55"/>
  <rect x="520" y="80" width="120" height="10" rx="3" fill="#1a3550"/>
  <rect x="520" y="102" width="200" height="8" rx="2" fill="#152a42"/>
  <rect x="520" y="128" width="212" height="6" rx="2" fill="#1e3a52" opacity="0.8"/>
  <rect x="520" y="142" width="180" height="6" rx="2" fill="#1e3a52" opacity="0.6"/>
  <rect x="520" y="178" width="100" height="36" rx="6" fill="#0d2840" stroke="#5ec8e8" stroke-opacity="0.35"/>
  <rect x="528" y="208" width="72" height="4" rx="2" fill="#5ec8e8" fill-opacity="0.45"/>
  <rect x="520" y="236" width="212" height="56" rx="8" fill="#081420" stroke="#2a4a6a"/>
  <rect x="536" y="252" width="8" height="8" rx="2" fill="#7dd8c0" fill-opacity="0.7"/>
  <rect x="552" y="254" width="160" height="5" rx="2" fill="#1e3550"/>
  <rect x="536" y="268" width="8" height="8" rx="2" fill="#5ec8e8" fill-opacity="0.5"/>
  <rect x="552" y="270" width="140" height="5" rx="2" fill="#1e3550"/>
  <text x="520" y="330" fill="#5a7a9a" font-family="system-ui,sans-serif" font-size="13" font-weight="500">Assistive review</text>
  <text x="520" y="352" fill="#4a6a8a" font-family="system-ui,sans-serif" font-size="11">Not diagnostic · Demo visual</text>
</svg>
