<svg xmlns="http://www.w3.org/2000/svg" viewBox="0 0 900 120" fill="none" aria-hidden="true">
  <defs>
    <linearGradient id="ln" x1="0" y1="0" x2="1" y2="0">
      <stop offset="0%" stop-color="#5ec8e8" stop-opacity="0.15"/>
      <stop offset="100%" stop-color="#5ec8e8" stop-opacity="0.45"/>
    </linearGradient>
  </defs>
  <rect width="900" height="120" rx="14" fill="#080f1a"/>
  <rect x="1" y="1" width="898" height="118" rx="13" stroke="#1e3a5c" stroke-opacity="0.5"/>
  <g stroke="url(#ln)" stroke-width="2" stroke-linecap="round">
    <line x1="108" y1="60" x2="162" y2="60"/>
    <line x1="258" y1="60" x2="312" y2="60"/>
    <line x1="408" y1="60" x2="462" y2="60"/>
    <line x1="558" y1="60" x2="612" y2="60"/>
    <line x1="708" y1="60" x2="762" y2="60"/>
  </g>
  <g font-family="system-ui,-apple-system,sans-serif" font-size="12" fill="#9abdd4" text-anchor="middle">
    <circle cx="72" cy="60" r="22" fill="#0c1828" stroke="#5ec8e8" stroke-opacity="0.5"/>
    <text x="72" y="64">1</text>
    <text x="72" y="98">Ingest CT</text>
    <circle cx="210" cy="60" r="22" fill="#0c1828" stroke="#5ec8e8" stroke-opacity="0.45"/>
    <text x="210" y="64">2</text>
    <text x="210" y="98">Anatomy</text>
    <circle cx="360" cy="60" r="22" fill="#0c1828" stroke="#5ec8e8" stroke-opacity="0.45"/>
    <text x="360" y="64">3</text>
    <text x="360" y="98">Localize</text>
    <circle cx="510" cy="60" r="22" fill="#0c1828" stroke="#5ec8e8" stroke-opacity="0.45"/>
    <text x="510" y="64">4</text>
    <text x="510" y="98">Score</text>
    <circle cx="660" cy="60" r="22" fill="#0c1828" stroke="#7dd8c0" stroke-opacity="0.55"/>
    <text x="660" y="64">5</text>
    <text x="660" y="98">Review</text>
  </g>
</svg>
