<svg width="152" height="42" viewBox="0 0 152 42" fill="none" xmlns="http://www.w3.org/2000/svg">
<g clip-path="url(#clip0_665_102606)">
<mask id="mask0_665_102606" style="mask-type:luminance" maskUnits="userSpaceOnUse" x="3" y="1" width="148" height="41">
<path d="M3 1.20508H151V41.2051H3V1.20508Z" fill="white"/>
</mask>
<g mask="url(#mask0_665_102606)">
<path d="M62.9848 28.5312C62.9848 28.2084 62.7823 27.9695 62.3682 27.8764V27.6675C62.5974 27.6675 63.3609 27.6994 63.5757 27.6994C63.7615 27.6994 64.5008 27.6675 64.7308 27.6675V27.8764C64.3465 27.9543 64.1447 28.19 64.1447 28.5312V32.6298C64.1447 33.9277 64.8308 34.6614 66.266 34.6614C67.5027 34.6614 68.4649 34.0846 68.4649 32.7263V28.5153C68.4649 28.2109 68.2808 27.9695 67.8175 27.8764V27.6675C67.9861 27.6675 68.6174 27.6994 68.8329 27.6994C69.017 27.6994 69.6796 27.6675 69.8491 27.6675V27.8764C69.4021 27.9871 69.2033 28.1949 69.2033 28.5153V32.5005C69.2033 34.2891 68.2016 35.3164 66.0401 35.3164C64.0277 35.3164 62.9848 34.3663 62.9848 32.6859V28.5312Z" fill="white"/>
<path d="M71.6165 34.9953C72.0847 34.9047 72.2696 34.6583 72.2696 34.3564V28.6915C72.2696 28.211 72.0233 27.9949 71.6035 27.8758V27.6669C71.841 27.6854 72.2396 27.6962 72.4431 27.6962C72.6279 27.6962 72.9153 27.693 73.1089 27.6669L77.839 33.4442V28.5155C77.839 28.2118 77.6534 27.9704 77.1918 27.8758V27.6669C77.3613 27.6669 77.9699 27.6996 78.1862 27.6996C78.3743 27.6996 79.0265 27.6669 79.1983 27.6669V27.8758C78.7471 27.9864 78.5294 28.196 78.5294 28.5155V35.3164H78.2443C78.065 35.2737 77.726 35.0733 77.2095 34.4848L72.9775 29.364V34.3564C72.9775 34.6599 73.146 34.9005 73.6078 34.9953V35.2049C73.4384 35.2049 72.8297 35.1715 72.6135 35.1715C72.427 35.1715 71.7884 35.2049 71.6165 35.2049V34.9953Z" fill="white"/>
<path d="M108.941 33.4681H109.141C109.247 33.8914 109.48 34.2773 109.807 34.5003C110.147 34.7492 110.681 34.8683 111.112 34.8683C112.063 34.8683 112.666 34.3787 112.666 33.6039C112.666 32.8015 111.894 32.3848 110.968 31.9043C110.279 31.5463 108.927 30.9553 108.927 29.5968C108.927 28.3314 109.856 27.5442 111.342 27.5442C112.323 27.5442 112.783 27.7932 113.445 27.7613L113.432 29.2965H113.23C112.965 28.3918 112.174 28.0765 111.308 28.0765C110.339 28.0765 109.977 28.652 109.977 29.2371C109.977 30.0748 110.766 30.4972 111.661 30.9116C112.666 31.3769 113.758 31.9647 113.758 33.2736C113.758 34.5128 112.825 35.4102 111.119 35.4102C110.104 35.4102 109.496 35.1091 108.962 35.041L108.941 33.4681Z" fill="white"/>
<path d="M129.268 32.0866L127.342 28.877C127.014 28.3136 126.762 28.0165 126.396 27.8758V27.6677C126.66 27.6677 127.372 27.7005 127.575 27.7005C127.758 27.7005 128.527 27.6677 128.805 27.6677V27.8758C128.559 27.921 128.443 28.0492 128.443 28.2422C128.443 28.4123 128.555 28.6313 128.667 28.8216C128.777 29.0102 130.087 31.2675 130.087 31.2675L131.455 28.8225C131.593 28.5775 131.691 28.3345 131.691 28.1742C131.691 28.0283 131.591 27.9075 131.358 27.8758V27.6677C131.59 27.6677 132.076 27.7005 132.232 27.7005C132.387 27.7005 132.946 27.6677 133.176 27.6677V27.8616C132.65 28.0855 132.321 28.565 132.002 29.1209L130.252 32.1605M130.371 31.7773V34.3413C130.371 34.5954 130.557 34.9149 130.979 34.9952V35.2051C130.744 35.2051 129.977 35.1715 129.755 35.1715C129.569 35.1715 128.833 35.2051 128.568 35.2051V34.9952C128.991 34.9149 129.193 34.5954 129.193 34.3413V31.8897" fill="white"/>
<path d="M93.4819 27.6679H97.9981C98.1377 27.6679 98.3824 27.6512 98.5219 27.5884H98.7239L98.6922 29.1126H98.4921C98.3202 28.6331 98.1418 28.2491 97.2677 28.2491H95.3068V30.9055H96.8181C97.0384 30.9055 97.3055 30.8861 97.4211 30.8576C97.7607 30.7805 97.9103 30.5841 97.9789 30.2833H98.1805C98.1661 30.5129 98.1661 31.0371 98.1661 31.1922C98.1661 31.3482 98.1805 31.8999 98.1805 32.1498H97.9789C97.8818 31.8495 97.7496 31.6214 97.4211 31.5377C97.3055 31.5058 97.0336 31.4798 96.8181 31.4798H95.3068V34.5957H97.4395C98.371 34.5957 98.6416 34.1924 98.8731 33.6222L99.0725 33.6707L98.8731 35.2363C98.1805 35.1725 97.7649 35.1725 96.9786 35.1725H94.7251C94.5079 35.1725 93.7111 35.2054 93.4795 35.2054V34.9965C93.8863 34.9159 94.1238 34.707 94.1238 34.3021V28.5393C94.1238 28.1821 93.9388 27.9589 93.4819 27.8793V27.6679Z" fill="white"/>
<path d="M81.9469 28.58C81.9469 28.1935 81.7249 27.9806 81.2898 27.8832V27.6762C81.532 27.6762 82.316 27.7079 82.5444 27.7079C82.7356 27.7079 83.5413 27.6762 83.7867 27.6762V27.8832C83.3539 27.9806 83.127 28.1732 83.127 28.58V34.3028C83.127 34.6893 83.3499 34.8997 83.7867 34.9952V35.2051C83.542 35.2051 82.7694 35.1722 82.5444 35.1722C82.3496 35.1722 81.532 35.2051 81.2891 35.2051V34.9952C81.7339 34.909 81.9469 34.7069 81.9469 34.3028V28.58Z" fill="white"/>
<path d="M116.207 28.58C116.207 28.1935 115.982 27.9806 115.548 27.8832V27.6762C115.79 27.6762 116.575 27.7079 116.801 27.7079C116.994 27.7079 117.8 27.6762 118.045 27.6762V27.8832C117.612 27.9806 117.386 28.1732 117.386 28.58V34.3028C117.386 34.6893 117.609 34.8997 118.045 34.9952V35.2051C117.802 35.2051 117.03 35.1722 116.801 35.1722C116.61 35.1722 115.79 35.2051 115.548 35.2051V34.9952C115.992 34.909 116.207 34.7069 116.207 34.3028V28.58Z" fill="white"/>
<path d="M122.484 27.6996C120.008 27.6996 119.612 27.6517 119.105 27.619L119.11 29.172H119.311C119.496 28.4835 119.865 28.3234 120.343 28.3234H121.896V34.3028C121.896 34.7067 121.683 34.909 121.237 34.9952V35.2051C121.482 35.2051 122.307 35.1722 122.497 35.1722C122.724 35.1722 123.499 35.2051 123.74 35.2051V34.9952C123.303 34.8997 123.081 34.6893 123.081 34.3028V28.3234H124.622C125.117 28.3234 125.472 28.4987 125.657 29.172H125.856L125.859 27.619C125.356 27.6517 124.96 27.6996 122.484 27.6996Z" fill="white"/>
<path d="M102.729 34.3032C102.729 34.6897 102.966 34.8994 103.402 34.9956V35.2055C103.16 35.2055 102.368 35.1726 102.142 35.1726C101.949 35.1726 101.175 35.2055 100.932 35.2055V34.9956C101.337 34.9153 101.576 34.7073 101.576 34.3032V28.5219C101.576 28.1664 101.389 27.9425 100.933 27.862V27.654C101.175 27.654 101.941 27.6857 102.158 27.6857C102.512 27.6857 103.519 27.6238 103.916 27.6238C105.651 27.6238 106.617 28.3692 106.617 29.647C106.617 30.6515 105.898 31.3308 104.791 31.6083C104.791 31.6083 105.043 31.7608 105.295 32.0652C105.601 32.4399 106.428 33.6719 106.771 34.1026C107.113 34.5347 107.551 35.0167 108.021 35.0386V35.207C107.796 35.2581 107.435 35.3027 107.159 35.3027C106.57 35.3027 106.099 35.0864 105.642 34.5121C105.247 34.0122 104.576 32.9751 104.181 32.4509C103.929 32.1173 103.623 31.8565 103.062 31.7608C102.954 31.7416 102.852 31.7256 102.729 31.7106V34.3032ZM102.729 31.2309C102.96 31.2636 103.3 31.2788 103.636 31.2788C104.994 31.2788 105.422 30.4671 105.422 29.7486C105.422 28.7324 104.769 28.1026 103.58 28.1026C103.334 28.1026 102.977 28.1345 102.729 28.1829V31.2309Z" fill="white"/>
<path d="M85.5271 28.6051C85.369 28.2412 85.126 27.9746 84.7119 27.88V27.6677C84.9693 27.6677 85.8613 27.7013 86.0573 27.7013C86.2376 27.7013 87.0172 27.6677 87.2821 27.6677V27.8739C87.047 27.9208 86.7791 28.0558 86.7791 28.3058C86.7791 28.4843 86.8832 28.7276 87.0826 29.1855L88.952 33.6041L90.7214 29.1779C90.8611 28.8206 90.962 28.5439 90.962 28.3326C90.962 28.0988 90.7545 27.9368 90.4605 27.8739V27.6677C90.6956 27.6677 91.2719 27.7013 91.4511 27.7013C91.6149 27.7013 92.2914 27.6677 92.5497 27.6677V27.88C92.1082 28.004 91.8392 28.2564 91.5915 28.8543L88.9875 35.2324H88.3982L85.5271 28.6051Z" fill="white"/>
<path d="M92.2031 8.4893C91.9022 7.79914 91.4403 7.29605 90.6582 7.11582V6.71414C91.1449 6.71414 92.7609 6.77454 93.1322 6.77454C93.4745 6.77454 95.0396 6.71414 95.5384 6.71414V7.10575C95.096 7.19558 94.5875 7.45216 94.5875 7.92581C94.5875 8.26026 94.7877 8.72252 95.159 9.58854L98.705 17.9625L102.06 9.57429C102.322 8.89515 102.517 8.37611 102.517 7.97443C102.517 7.52832 102.12 7.22578 101.564 7.10575V6.71414C102.008 6.71414 103.087 6.77454 103.43 6.77454C103.742 6.77454 105.024 6.71414 105.511 6.71414V7.09322C104.675 7.3289 104.163 7.82782 103.697 8.96048L98.7647 21.0508H97.6484L92.2031 8.4893Z" fill="white"/>
<path d="M44.4561 20.5902C45.1002 20.4375 45.553 20.1333 45.553 19.3753V8.29117C45.553 7.56341 45.1316 7.26144 44.4561 7.07874V6.68543C44.7943 6.68543 46.2512 6.74506 46.6055 6.74506C47.014 6.74506 48.5411 6.68543 48.877 6.68543V7.07874C48.2336 7.23049 47.7566 7.53397 47.7566 8.29117V12.9213H55.7057V8.29117C55.7057 7.53397 55.282 7.23049 54.6104 7.07874V6.68543C54.9461 6.68543 56.446 6.74506 56.8535 6.74506C57.2055 6.74506 58.6964 6.68543 59.0288 6.68543V7.07874C58.3849 7.23049 57.9077 7.53397 57.9077 8.29117V19.3753C57.9077 20.1031 58.3556 20.4083 59.0288 20.5902V20.9531C58.6964 20.9531 57.2055 20.9231 56.8535 20.9231C56.446 20.9231 54.9461 20.9531 54.6104 20.9531V20.5902C55.2498 20.4375 55.7057 20.1333 55.7057 19.3753V14.137H47.7566V19.3753C47.7566 20.1333 48.2038 20.4083 48.877 20.5902V20.9531C48.5411 20.9531 47.014 20.9231 46.6055 20.9231C46.2512 20.9231 44.7943 20.9531 44.4561 20.9531V20.5902Z" fill="white"/>
<path d="M136.402 20.591C137.227 20.4383 137.682 20.0979 137.682 19.3157V8.29195C137.682 7.53228 137.234 7.23126 136.436 7.07952V6.6862C136.895 6.6862 138.39 6.74584 138.805 6.74584C139.473 6.74584 141.337 6.59409 142.789 6.59409C147.679 6.59409 150.647 9.43069 150.647 13.7439C150.647 17.9363 147.558 21.043 142.517 21.043C141.063 21.043 139.339 20.9239 138.664 20.9239C138.254 20.9239 136.86 20.9841 136.402 20.9841V20.591ZM139.884 19.8605C140.382 19.9546 141.302 20.0132 142.028 20.0132C146.135 20.0132 148.274 17.445 148.274 13.863C148.274 10.1493 146.018 7.53646 142.177 7.53646C141.392 7.53646 140.412 7.59761 139.884 7.68668V19.8605Z" fill="white"/>
<path d="M81.0526 19.2757C81.0526 20.0103 81.5005 20.4093 82.3247 20.5912V20.9845C81.8655 20.9845 80.3698 20.9241 79.9396 20.9241C79.5763 20.9241 78.1087 20.9845 77.6504 20.9845V20.5912C78.4155 20.4387 78.8667 20.0429 78.8667 19.2757V8.33094C78.8667 7.65749 78.5164 7.2317 77.6519 7.07976V6.68644C78.1113 6.68644 79.5609 6.74608 79.9677 6.74608C80.6402 6.74608 82.5469 6.62966 83.299 6.62966C86.5875 6.62966 88.4182 8.04245 88.4182 10.459C88.4182 12.364 87.0524 13.6459 84.9563 14.1751C84.9563 14.1751 85.4317 14.4628 85.9101 15.042C86.4906 15.7506 88.0922 18.132 88.7396 18.9477C89.3868 19.7645 90.2174 20.6767 91.1053 20.7186V21.04C90.6799 21.1353 89.9987 21.2168 89.478 21.2168C88.3569 21.2168 87.4665 20.8092 86.6005 19.7191C85.8538 18.7733 84.5477 16.7627 83.7994 15.77C83.3217 15.1376 82.7454 14.6447 81.6872 14.4628C81.4788 14.4257 81.2828 14.3973 81.0526 14.3705V19.2757ZM81.0526 13.4625C81.4877 13.5219 82.1309 13.5521 82.7688 13.5521C85.3404 13.5521 86.1484 12.0144 86.1484 10.6559C86.1484 8.72672 84.9117 7.5367 82.6589 7.5367C82.1947 7.5367 81.5185 7.59805 81.0526 7.68693V13.4625Z" fill="white"/>
<path d="M124.396 19.2757C124.396 20.0103 124.845 20.4093 125.671 20.5912V20.9845C125.212 20.9845 123.718 20.9241 123.288 20.9241C122.918 20.9241 121.455 20.9845 120.995 20.9845V20.5912C121.759 20.4387 122.211 20.0429 122.211 19.2757V8.33094C122.211 7.65749 121.857 7.2317 120.998 7.07976V6.68644C121.459 6.68644 122.903 6.74608 123.314 6.74608C123.987 6.74608 125.893 6.62966 126.641 6.62966C129.935 6.62966 131.76 8.04245 131.76 10.459C131.76 12.364 130.397 13.6459 128.3 14.1751C128.3 14.1751 128.777 14.4628 129.252 15.042C129.838 15.7506 131.439 18.132 132.084 18.9477C132.734 19.7645 133.565 20.6767 134.448 20.7186V21.04C134.028 21.1353 133.343 21.2168 132.828 21.2168C131.704 21.2168 130.81 20.8092 129.946 19.7191C129.199 18.7733 127.897 16.7627 127.143 15.77C126.665 15.1376 126.09 14.6447 125.034 14.4628C124.823 14.4257 124.629 14.3973 124.396 14.3705V19.2757ZM124.396 13.4625C124.836 13.5219 125.476 13.5521 126.114 13.5521C128.687 13.5521 129.493 12.0144 129.493 10.6559C129.493 8.72672 128.255 7.5367 126.006 7.5367C125.538 7.5367 124.865 7.59805 124.396 7.68693V13.4625Z" fill="white"/>
<path d="M61.1199 20.5885C61.9899 20.3774 62.4679 19.792 62.7851 19.0088L67.1875 8.0054C67.3747 7.55017 67.5927 6.61426 67.5927 6.61426H68.8246C68.8246 6.61426 69.0449 7.55264 69.2281 8.00882L73.8806 19.039C74.2125 19.7987 74.5715 20.3472 75.4966 20.5885L75.4943 20.9551C74.9906 20.9551 73.4247 20.9249 73.0685 20.9249C72.7142 20.9249 71.2185 20.9551 70.7157 20.9551L70.7174 20.5885C71.3945 20.4159 71.6085 20.0579 71.6085 19.7115C71.6085 19.4173 71.4914 19.0852 71.3494 18.7406L70.3491 16.3709H65.2227L64.3067 18.7539C64.2042 19.024 64.0822 19.4055 64.0822 19.6629C64.0822 20.0604 64.2824 20.3774 65.0508 20.5885L65.0492 20.9551C64.5939 20.9551 63.392 20.9249 63.1105 20.9249L61.1191 20.9551L61.1199 20.5885ZM69.8851 15.2473L67.696 9.94901L65.6571 15.2473H69.8851Z" fill="white"/>
<path d="M104.735 20.5885C105.605 20.3774 106.084 19.792 106.399 19.0088L110.803 8.0054C110.991 7.55017 111.211 6.61426 111.211 6.61426H112.443C112.443 6.61426 112.661 7.55264 112.843 8.00882L117.498 19.039C117.827 19.7987 118.189 20.3472 119.11 20.5885L119.109 20.9551C118.607 20.9551 117.039 20.9249 116.681 20.9249C116.33 20.9249 114.835 20.9551 114.331 20.9551V20.5885C115.012 20.4159 115.223 20.0579 115.223 19.7115C115.223 19.4173 115.107 19.0852 114.968 18.7406L113.964 16.3709H108.837L107.92 18.7539C107.818 19.024 107.697 19.4055 107.697 19.6629C107.697 20.0604 107.897 20.3774 108.665 20.5885V20.9551C108.208 20.9551 107.008 20.9249 106.725 20.9249L104.733 20.9551L104.735 20.5885ZM113.5 15.2473L111.31 9.94901L109.272 15.2473H113.5Z" fill="white"/>
<path d="M3.81055 2.23716H34.5062V14.2821C34.5062 19.8009 32.5286 31.5045 19.2729 40.2148C19.2729 40.2148 4.90988 33.9839 3.81055 14.2821L3.81055 2.23716Z" fill="#A81D28"/>
<path d="M3.74805 2.20479H34.4735V14.2581C34.4735 19.7788 32.4935 31.4888 19.2258 40.2051C19.2258 40.2051 4.84903 33.9701 3.74805 14.2581L3.74805 2.20479Z" stroke="#12110C" stroke-width="0.306667"/>
<path d="M27.0445 17.714C27.0445 17.714 26.7708 18.6202 25.5538 17.6887L21.3749 17.5839C21.3749 17.5839 20.8277 17.7668 20.7533 17.1721C20.7533 17.1721 20.8535 15.9842 20.8026 15.8801C20.8026 15.8801 20.8277 15.5447 20.2787 15.5447C20.2787 15.5447 19.4344 15.6479 19.4093 14.8715C19.4093 14.8715 19.2618 14.0448 20.4297 14.0723C20.4297 14.0723 20.8026 14.2525 20.8277 13.7605C20.8277 13.7605 20.7785 10.4006 20.8026 10.1441C20.8026 10.1441 20.9027 9.83545 20.3295 9.78265C20.3295 9.78265 19.5095 9.96288 19.4093 9.39617C19.4093 9.39617 19.3601 8.54345 19.9083 8.49065C19.9083 8.49065 20.579 8.54345 20.7032 8.3615C20.7032 8.3615 20.8535 8.46368 20.8277 7.84664L20.8535 6.785C20.8535 6.785 20.9253 6.50165 21.3491 6.52938C21.3491 6.52938 22.1206 6.58046 22.2216 6.50165C22.2216 6.50165 22.3936 6.27033 22.4444 6.16531C22.4444 6.16531 22.8432 6.14024 22.9167 6.24412C22.9167 6.24412 23.514 6.65757 25.7772 6.50165C25.7772 6.50165 26.126 6.50165 26.1986 6.60572C26.1986 6.60572 26.6231 6.94093 26.871 6.58046C26.871 6.58046 27.244 6.50165 28.3627 6.52938C28.3627 6.52938 29.5831 6.86382 30.4266 6.14024L30.7011 6.19227C30.7011 6.19227 31.049 6.785 31.2976 6.60572C31.2976 6.60572 32.0443 6.52938 32.1677 6.68359C32.1677 6.68359 32.4156 7.06855 32.292 8.07967C32.292 8.07967 32.1445 8.51743 32.8652 8.51743C32.8652 8.51743 33.687 8.3615 33.5859 9.16219C33.5859 9.16219 33.8095 10.067 32.443 9.93857C32.443 9.93857 32.2679 10.1969 32.292 10.378C32.292 10.378 32.2679 13.3219 32.2428 13.6598C32.2428 13.6598 32.2185 14.1253 32.8144 14.0983C32.8144 14.0983 33.6111 14.0448 33.6376 14.7951C33.6376 14.7951 33.7362 15.777 32.5908 15.5951C32.5908 15.5951 32.2428 15.6479 32.1911 15.8801L32.1445 17.1721C32.1445 17.1721 32.1677 17.8178 31.4728 17.6619C31.3735 17.6619 27.5934 17.7417 27.269 17.6386C27.269 17.6386 27.093 17.6125 27.0445 17.714Z" fill="white"/>
<path d="M19.0106 22.033C19.0106 22.033 19.185 21.9567 19.2342 21.8293C19.2342 21.8293 19.7572 21.7763 19.8305 21.6994L21.4732 21.8293C21.4732 21.8293 23.0892 21.9567 23.7858 21.4377C23.7858 21.4377 24.0361 21.4377 24.2103 21.5165C24.2103 21.5165 24.5566 21.5953 24.6559 21.748L25.602 21.722C25.602 21.722 26.1492 21.9047 26.0984 22.2668V22.7306C26.0984 22.7306 25.9984 23.6614 26.247 23.7142H26.9701C26.9701 23.7142 27.5676 23.9977 27.4924 24.359C27.4924 24.359 27.5175 24.8738 26.9961 24.9787C26.9961 24.9787 26.4714 25.1329 26.2993 25.1086C26.2993 25.1086 26.1242 25.3401 26.0984 25.6242L26.0258 29.0093C26.0258 29.0093 25.975 29.3707 26.4981 29.3194C26.4981 29.3194 27.2672 29.2415 27.4924 29.6825C27.4924 29.6825 27.6917 30.4304 27.2939 30.5595L26.9961 30.713L26.3478 30.8205C26.3478 30.8205 26.0759 30.8439 26.0499 31.3344V32.2373C26.0499 32.2373 26.0759 32.8596 25.602 32.8596L24.9054 32.9115C24.9054 32.9115 24.7318 33.0642 24.384 32.961C24.384 32.961 20.1551 33.0406 20.0057 32.988L19.5079 33.0927C19.5079 33.0927 18.9612 33.6092 18.5133 33.2201L18.1654 32.9358C18.1654 32.9358 17.916 32.988 17.8184 32.961C17.7183 32.9358 13.1415 33.0138 13.1415 33.0138C13.1415 33.0138 12.1712 33.1187 12.0977 32.7808C12.0977 32.7808 11.9736 31.4643 12.0228 31.3067C12.0228 31.3067 12.0228 30.921 11.7992 30.8959C11.7992 30.8959 10.8289 30.8439 10.8038 30.739C10.8038 30.739 10.2808 30.3535 10.4301 29.9666C10.4301 29.9666 10.6053 29.4478 11.1267 29.3965C11.1267 29.3965 11.9226 29.5274 11.9226 29.2943C11.9226 29.2943 11.9736 29.1392 11.9736 28.8818C11.9736 28.8818 12.0228 25.8054 11.9977 25.5991C11.9977 25.5991 12.0719 25.2117 11.7483 25.2117C11.7483 25.2117 11.4004 25.314 11.1775 25.1598C11.1775 25.1598 10.5802 25.1859 10.4559 24.6943C10.4559 24.6943 10.3559 24.385 10.5044 24.1242C10.5044 24.1242 10.779 23.5566 11.5748 23.7383C11.5748 23.7383 12.0228 23.8684 12.0719 23.5338L12.0485 22.2911C12.0485 22.2911 11.9476 21.9567 12.57 21.7763C12.57 21.7763 13.3658 22.0078 13.6137 21.5953C13.6137 21.5953 13.8881 21.025 14.1094 21.4126C14.1094 21.4126 14.584 21.8788 15.8771 21.8293C15.8771 21.8293 18.1162 21.6466 18.1654 21.748C18.1654 21.748 18.7127 21.8293 18.8612 22.0078L19.0106 22.033Z" fill="white"/>
<path d="M12.2489 17.7142C12.2489 17.7142 11.9745 18.6205 10.7558 17.6882L6.57761 17.5841C6.57761 17.5841 6.03041 17.767 5.95527 17.1718C5.95527 17.1718 6.05546 15.9844 6.00372 15.8803C6.00372 15.8803 6.03041 15.5432 5.4823 15.5432C5.4823 15.5432 4.63801 15.6488 4.61369 14.8734C4.61369 14.8734 4.46359 14.044 5.6324 14.0725C5.6324 14.0725 6.00372 14.2528 6.03041 13.7616C6.03041 13.7616 5.98032 10.4033 6.00372 10.1435C6.00372 10.1435 6.10537 9.83662 5.53313 9.78363C5.53313 9.78363 4.71132 9.9631 4.61369 9.39468C4.61369 9.39468 4.56286 8.54366 5.10933 8.49087C5.10933 8.49087 5.78104 8.54366 5.90609 8.36495C5.90609 8.36495 6.05546 8.46485 6.03041 7.8442L6.05546 6.78617C6.05546 6.78617 6.13042 6.50187 6.55092 6.52789C6.55092 6.52789 7.32428 6.57897 7.42428 6.50187C7.42428 6.50187 7.59797 6.27055 7.64551 6.16553C7.64551 6.16553 8.0459 6.14122 8.12012 6.24187C8.12012 6.24187 8.71577 6.65779 10.9815 6.50187C10.9815 6.50187 11.3278 6.50187 11.403 6.60594C11.403 6.60594 11.8251 6.94115 12.0738 6.57897C12.0738 6.57897 12.4467 6.50187 13.5669 6.52789C13.5669 6.52789 14.7834 6.86328 15.6303 6.14122L15.9031 6.1942C15.9031 6.1942 16.251 6.78617 16.502 6.60594C16.502 6.60594 17.247 6.52789 17.3721 6.68381C17.3721 6.68381 17.6214 7.07124 17.4947 8.07989C17.4947 8.07989 17.347 8.51841 18.0679 8.51841C18.0679 8.51841 18.8879 8.36495 18.7895 9.16241C18.7895 9.16241 19.0139 10.0672 17.6458 9.93879C17.6458 9.93879 17.4706 10.1978 17.4947 10.3783C17.4947 10.3783 17.4706 13.3222 17.4463 13.66C17.4463 13.66 17.4222 14.1221 18.0187 14.0985C18.0187 14.0985 18.8146 14.044 18.8387 14.7963C18.8387 14.7963 18.938 15.7772 17.7949 15.5953C17.7949 15.5953 17.4463 15.6488 17.3955 15.8803L17.347 17.1718C17.347 17.1718 17.3721 17.8181 16.6739 17.6639C16.5746 17.6639 12.7963 17.7402 12.4716 17.6388C12.4716 17.6388 12.2981 17.6128 12.2489 17.7142Z" fill="white"/>
<path d="M27.0445 17.714C27.0445 17.714 26.7708 18.6202 25.5538 17.6887L21.3749 17.5839C21.3749 17.5839 20.8277 17.7668 20.7533 17.1721C20.7533 17.1721 20.8535 15.9842 20.8026 15.8801C20.8026 15.8801 20.8277 15.5447 20.2787 15.5447C20.2787 15.5447 19.4344 15.6479 19.4093 14.8715C19.4093 14.8715 19.2618 14.0448 20.4297 14.0723C20.4297 14.0723 20.8026 14.2525 20.8277 13.7605C20.8277 13.7605 20.7785 10.4006 20.8026 10.1441C20.8026 10.1441 20.9027 9.83545 20.3295 9.78265C20.3295 9.78265 19.5095 9.96288 19.4093 9.39617C19.4093 9.39617 19.3601 8.54345 19.9083 8.49065C19.9083 8.49065 20.579 8.54345 20.7032 8.3615C20.7032 8.3615 20.8535 8.46368 20.8277 7.84664L20.8535 6.785C20.8535 6.785 20.9253 6.50165 21.3491 6.52938C21.3491 6.52938 22.1206 6.58046 22.2216 6.50165C22.2216 6.50165 22.3936 6.27033 22.4444 6.16531C22.4444 6.16531 22.8432 6.14024 22.9167 6.24412C22.9167 6.24412 23.514 6.65757 25.7772 6.50165C25.7772 6.50165 26.126 6.50165 26.1986 6.60572C26.1986 6.60572 26.6231 6.94093 26.871 6.58046C26.871 6.58046 27.244 6.50165 28.3627 6.52938C28.3627 6.52938 29.5831 6.86382 30.4266 6.14024L30.7011 6.19227C30.7011 6.19227 31.049 6.785 31.2976 6.60572C31.2976 6.60572 32.0443 6.52938 32.1677 6.68359C32.1677 6.68359 32.4156 7.06855 32.292 8.07967C32.292 8.07967 32.1445 8.51743 32.8652 8.51743C32.8652 8.51743 33.687 8.3615 33.5859 9.16219C33.5859 9.16219 33.8095 10.067 32.443 9.93857C32.443 9.93857 32.2679 10.1969 32.292 10.378C32.292 10.378 32.2679 13.3219 32.2428 13.6598C32.2428 13.6598 32.2185 14.1253 32.8144 14.0983C32.8144 14.0983 33.6111 14.0448 33.6376 14.7951C33.6376 14.7951 33.7362 15.777 32.5908 15.5951C32.5908 15.5951 32.2428 15.6479 32.1911 15.8801L32.1445 17.1721C32.1445 17.1721 32.1677 17.8178 31.4728 17.6619C31.3735 17.6619 27.5934 17.7417 27.269 17.6386C27.269 17.6386 27.093 17.6125 27.0445 17.714Z" fill="#12110C"/>
<path d="M27.0443 17.7158C27.0443 17.7158 26.7706 18.6223 25.5535 17.6907L21.3738 17.5859C21.3738 17.5859 20.8266 17.7686 20.7523 17.1734C20.7523 17.1734 20.8532 15.9853 20.8015 15.8812C20.8015 15.8812 20.8266 15.5458 20.2784 15.5458C20.2784 15.5458 19.4334 15.6499 19.4084 14.8733C19.4084 14.8733 19.2606 14.0466 20.4285 14.0734C20.4285 14.0734 20.8015 14.2538 20.8266 13.7625C20.8266 13.7625 20.7774 10.4025 20.8015 10.1451C20.8015 10.1451 20.9024 9.83575 20.3293 9.78371C20.3293 9.78371 19.5084 9.96413 19.4084 9.39723C19.4084 9.39723 19.3599 8.54355 19.9071 8.4917C19.9071 8.4917 20.5779 8.54355 20.7024 8.36256C20.7024 8.36256 20.8532 8.46473 20.8266 7.84675L20.8532 6.7853C20.8532 6.7853 20.9242 6.50194 21.3496 6.52967C21.3496 6.52967 22.1204 6.58076 22.2206 6.50194C22.2206 6.50194 22.3926 6.27138 22.4442 6.16636C22.4442 6.16636 22.8422 6.14053 22.9164 6.24461C22.9164 6.24461 23.513 6.65787 25.7769 6.50194C25.7769 6.50194 26.1258 6.50194 26.1984 6.60583C26.1984 6.60583 26.6229 6.94122 26.8708 6.58076C26.8708 6.58076 27.2438 6.50194 28.3625 6.52967C28.3625 6.52967 29.5829 6.86412 30.4271 6.14053L30.7018 6.19162C30.7018 6.19162 31.0495 6.7853 31.2974 6.60583C31.2974 6.60583 32.0441 6.52967 32.1675 6.68293C32.1675 6.68293 32.4161 7.06961 32.2927 8.07901C32.2927 8.07901 32.1443 8.51848 32.8657 8.51848C32.8657 8.51848 33.6868 8.36256 33.5857 9.16249C33.5857 9.16249 33.8093 10.068 32.4428 9.93887C32.4428 9.93887 32.2684 10.1972 32.2927 10.3791C32.2927 10.3791 32.2684 13.323 32.2433 13.6601C32.2433 13.6601 32.2183 14.1254 32.8149 14.1003C32.8149 14.1003 33.6124 14.0466 33.6381 14.7962C33.6381 14.7962 33.7359 15.7781 32.5913 15.5961C32.5913 15.5961 32.2433 15.6499 32.1918 15.8812L32.1443 17.1734C32.1443 17.1734 32.1675 17.8199 31.4735 17.6639C31.3742 17.6639 27.5931 17.7427 27.2688 17.6396C27.2688 17.6396 27.0928 17.6144 27.0443 17.7158Z" stroke="#12110C" stroke-width="0.0133333"/>
<path d="M22.3442 7.06994C22.3442 7.06994 22.3934 7.58727 22.3934 7.71812C22.3934 7.84632 22.3201 15.1832 22.3201 15.1832C22.3201 15.1832 22.3934 15.7516 21.9228 16.0367C21.9228 16.0367 21.7968 16.087 21.7734 15.7256L21.8221 7.97717C21.8221 7.97717 21.872 7.01866 22.3442 7.06994Z" fill="white"/>
<path d="M22.3446 7.06906C22.3446 7.06906 22.3931 7.58639 22.3931 7.71725C22.3931 7.8462 22.3205 15.184 22.3205 15.184C22.3205 15.184 22.3931 15.7524 21.9225 16.0366C21.9225 16.0366 21.7965 16.0878 21.7715 15.7264L21.8216 7.97629C21.8216 7.97629 21.8708 7.01778 22.3446 7.06906Z" stroke="#12110C" stroke-width="0.016"/>
<path d="M21.5236 16.1141C21.5236 16.1141 21.5729 8.82854 21.5495 8.69939C21.5236 8.57196 21.5729 8.80499 21.5729 8.80499C21.5729 8.80499 21.4985 7.5371 21.8223 7.01901C21.8223 7.01901 21.7214 6.5822 21.1499 7.12384L21.1248 8.18187C21.1248 8.18187 21.1248 8.77726 20.6034 8.75124C20.6034 8.75124 20.0061 8.72446 19.7324 9.00877C19.7324 9.00877 19.5832 9.57795 20.1545 9.47577C20.1545 9.47577 21.0506 9.47577 21.1007 9.86054L21.0506 13.763C21.0506 13.763 21.2499 14.4119 20.5542 14.4119C20.5542 14.4119 19.7059 14.3566 19.7324 14.8992C19.7324 14.8992 19.9076 15.3636 20.6284 15.2101C20.6284 15.2101 21.1499 15.3115 21.1248 15.8306V16.8117C21.1248 16.8117 21.0747 17.2016 21.5729 17.2259H25.4529C25.4529 17.2259 25.6507 17.251 25.6507 16.9927C25.6507 16.9927 25.6266 16.7866 25.3285 16.7866L22.0958 16.7346C22.0958 16.7346 21.5729 16.9165 21.5236 16.1141Z" fill="white"/>
<path d="M22.27 16.1022C22.27 16.1022 22.17 16.4636 22.5428 16.3881H25.1049L25.7998 16.5449C25.7998 16.5449 26.5207 16.3622 25.7998 15.9495C25.7998 15.9495 23.5123 15.9731 23.3138 15.9228C23.3138 15.9228 22.8408 15.7944 22.739 15.7685C22.739 15.7685 22.4929 15.6654 22.27 16.1022Z" fill="white"/>
<path d="M22.27 16.1015C22.27 16.1015 22.17 16.4636 22.5428 16.3882H25.1056L25.8008 16.5449C25.8008 16.5449 26.5222 16.3615 25.8008 15.948C25.8008 15.948 23.513 15.9714 23.3136 15.922C23.3136 15.922 22.8408 15.7929 22.7399 15.7668C22.7399 15.7668 22.4929 15.6637 22.27 16.1015Z" stroke="#12110C" stroke-width="0.016"/>
<path d="M26.5221 16.4635C26.5221 16.4635 26.0498 16.4635 26.0741 17.1108C26.0741 17.1108 26.1241 17.5996 26.6214 17.5996C26.6214 17.5996 27.0676 17.5235 27.0201 17.0069C27.0201 17.0069 26.7457 16.3612 26.5221 16.4635Z" fill="white"/>
<path d="M26.8706 16.2062C26.8706 16.2062 27.0942 15.9489 27.2443 15.9489C27.2443 15.9489 29.7313 16.1802 30.151 15.8708C30.151 15.8708 30.5264 15.7937 30.6264 15.8708C30.6264 15.8708 30.9986 16.1802 30.9986 16.3614C30.9986 16.3614 30.9743 16.5952 30.5264 16.4628C30.5264 16.4628 27.7158 16.4913 27.5664 16.4913C27.5664 16.4913 26.794 16.6708 26.8706 16.2062Z" fill="white"/>
<path d="M26.8696 16.2055C26.8696 16.2055 27.0932 15.9472 27.2433 15.9472C27.2433 15.9472 29.731 16.1788 30.1517 15.8692C30.1517 15.8692 30.5269 15.7921 30.6271 15.8692C30.6271 15.8692 30.9991 16.1788 30.9991 16.3615C30.9991 16.3615 30.975 16.5954 30.5269 16.4629C30.5269 16.4629 27.7148 16.4914 27.5654 16.4914C27.5654 16.4914 26.793 16.6708 26.8696 16.2055Z" stroke="#12110C" stroke-width="0.016"/>
<path d="M27.1934 17.0446C27.1934 17.0446 27.1934 16.8356 27.542 16.8356L31.0227 16.8106C31.0227 16.8106 31.3472 16.9918 31.3472 16.3728C31.3472 16.3728 31.4746 13.5565 31.4859 10.4558C31.49 9.53258 31.5304 8.5642 31.4989 7.66684C31.4989 7.66684 31.4214 7.27865 31.3214 7.19983C31.3214 7.19983 31.3214 6.78733 31.745 6.9425C31.745 6.9425 32.118 6.96851 32.0187 7.56466L32.0445 8.46506C32.0445 8.46506 31.9695 8.85496 32.6394 8.75032C32.6394 8.75032 33.3102 8.85496 33.3369 9.11154C33.3369 9.11154 33.5354 9.63058 32.7411 9.57778H32.1664C32.1664 9.57778 31.9187 9.73219 31.9929 10.0433L31.9187 13.7903C31.9187 13.7903 31.8686 14.4351 32.4659 14.4108C32.4659 14.4108 33.0866 14.384 33.2116 14.5912C33.2116 14.5912 33.6371 15.2367 32.7153 15.1849C32.7153 15.1849 32.143 15.1579 32.0187 15.2628C32.0187 15.2628 31.9187 15.391 31.8443 16.6068C31.8443 16.6068 31.8951 17.3304 31.372 17.2508C31.372 17.2508 27.9142 17.3019 27.5914 17.2257C27.5914 17.2257 27.2435 17.3304 27.1934 17.0446Z" fill="white"/>
<path d="M22.7178 6.83495L22.6427 15.1309C22.6427 15.1309 22.6186 15.5159 23.2402 15.5937C23.2402 15.5937 23.9609 15.6708 24.1337 15.5937C24.1337 15.5937 24.6092 15.567 25.8255 15.6197C25.8255 15.6197 26.1257 15.9325 26.1508 15.5419C26.1508 15.5419 26.3477 8.82718 26.251 7.42863C26.251 7.42863 26.2235 6.83495 25.8021 6.80893C25.8021 6.80893 23.9117 6.96751 23.7375 6.80893L22.9908 6.60439C22.9908 6.60439 22.6921 6.62946 22.7178 6.83495Z" fill="white"/>
<path d="M26.6467 7.25068C26.6467 7.25068 26.5725 11.1521 26.5974 11.2813L26.5482 14.5615L26.4473 15.6993C26.4473 15.6993 26.5974 15.9314 26.7219 15.7772C26.7219 15.7772 27.5177 15.5675 28.0148 15.649C28.0148 15.649 29.6083 15.8024 29.9303 15.5424C29.9303 15.5424 30.1797 15.6716 30.2524 15.2581C30.2524 15.2581 30.3508 8.0263 30.3049 7.89715C30.3049 7.89715 30.4009 6.86078 30.3508 6.76012C30.3508 6.76012 30.329 6.52785 29.9052 6.73334C29.9052 6.73334 29.9537 6.9413 27.5927 6.86078C27.5927 6.86078 26.6976 6.83552 26.6467 7.25068Z" fill="white"/>
<path d="M30.6023 7.14867L30.5781 15.3113C30.5781 15.3113 30.7767 16.0374 31.0995 15.9612C31.0995 15.9612 31.148 15.8043 31.1721 15.546L31.273 7.76837C31.273 7.76837 31.0228 6.53068 30.6023 7.14867Z" fill="white"/>
<path d="M30.6013 7.14694L30.5771 15.3113C30.5771 15.3113 30.7764 16.0375 31.0993 15.9612C31.0993 15.9612 31.1487 15.8043 31.1728 15.546L31.2728 7.76664C31.2728 7.76664 31.0227 6.52895 30.6013 7.14694Z" stroke="#12110C" stroke-width="0.016"/>
<path d="M27.5476 9.59142C27.4733 9.38517 27.9704 9.35915 27.9704 9.35915L28.22 9.41024C28.3944 9.38517 28.5687 9.46304 28.5687 9.46304C28.7423 9.74658 28.4436 9.9008 28.4436 9.9008L28.3443 10.2379C28.3186 10.523 28.3443 12.9773 28.3443 12.9773C28.3944 13.1047 28.593 13.3362 28.593 13.3362C28.593 13.57 28.3186 13.5189 28.3186 13.5189L27.5984 13.5449C27.3741 13.5189 27.4483 13.2597 27.4483 13.2597C27.6969 13.1307 27.7721 12.6645 27.7721 12.6645V10.108L27.5476 9.59142Z" fill="#12110C"/>
<path d="M24.1909 11.9964L24.1417 12.7971L24.3636 13.1838C24.5146 13.39 24.2651 13.5469 24.2651 13.5469L23.4692 13.4696C23.3215 13.39 23.4692 13.1325 23.4692 13.1325C23.6687 13.0052 23.6936 12.6672 23.6936 12.6672L23.6687 11.1689L23.6936 10.0839C23.6936 9.95384 23.495 9.72328 23.495 9.72328C23.3215 9.69726 23.3707 9.46499 23.3707 9.46499C23.4201 9.33509 23.8413 9.41219 23.8413 9.41219H24.8874C25.8827 9.74854 25.7334 10.4979 25.7334 10.4979C25.8085 11.246 25.0375 11.5579 25.0375 11.5579L24.986 11.9713L25.7083 13.1577C25.8326 13.2616 25.8085 13.3665 25.8085 13.3665C25.7083 13.6508 25.3096 13.3665 25.3096 13.3665L24.4154 11.9185C24.3402 11.8145 24.1909 11.9964 24.1909 11.9964ZM24.2159 9.95384C24.24 10.524 24.24 11.2988 24.24 11.2988C24.7139 11.687 24.986 11.1429 24.986 11.1429C25.6067 10.524 24.986 9.95384 24.8874 9.80038C24.7865 9.64446 24.2894 9.77361 24.2894 9.77361L24.2159 9.95384Z" fill="#12110C"/>
<path d="M19.0106 22.033C19.0106 22.033 19.185 21.9567 19.2342 21.8293C19.2342 21.8293 19.7572 21.7763 19.8305 21.6994L21.4732 21.8293C21.4732 21.8293 23.0892 21.9567 23.7858 21.4377C23.7858 21.4377 24.0361 21.4377 24.2103 21.5165C24.2103 21.5165 24.5566 21.5953 24.6559 21.748L25.602 21.722C25.602 21.722 26.1492 21.9047 26.0984 22.2668V22.7306C26.0984 22.7306 25.9984 23.6614 26.247 23.7142H26.9701C26.9701 23.7142 27.5676 23.9977 27.4924 24.359C27.4924 24.359 27.5175 24.8738 26.9961 24.9787C26.9961 24.9787 26.4714 25.1329 26.2993 25.1086C26.2993 25.1086 26.1242 25.3401 26.0984 25.6242L26.0258 29.0093C26.0258 29.0093 25.975 29.3707 26.4981 29.3194C26.4981 29.3194 27.2672 29.2415 27.4924 29.6825C27.4924 29.6825 27.6917 30.4304 27.2939 30.5595L26.9961 30.713L26.3478 30.8205C26.3478 30.8205 26.0759 30.8439 26.0499 31.3344V32.2373C26.0499 32.2373 26.0759 32.8596 25.602 32.8596L24.9054 32.9115C24.9054 32.9115 24.7318 33.0642 24.384 32.961C24.384 32.961 20.1551 33.0406 20.0057 32.988L19.5079 33.0927C19.5079 33.0927 18.9612 33.6092 18.5133 33.2201L18.1654 32.9358C18.1654 32.9358 17.916 32.988 17.8184 32.961C17.7183 32.9358 13.1415 33.0138 13.1415 33.0138C13.1415 33.0138 12.1712 33.1187 12.0977 32.7808C12.0977 32.7808 11.9736 31.4643 12.0228 31.3067C12.0228 31.3067 12.0228 30.921 11.7992 30.8959C11.7992 30.8959 10.8289 30.8439 10.8038 30.739C10.8038 30.739 10.2808 30.3535 10.4301 29.9666C10.4301 29.9666 10.6053 29.4478 11.1267 29.3965C11.1267 29.3965 11.9226 29.5274 11.9226 29.2943C11.9226 29.2943 11.9736 29.1392 11.9736 28.8818C11.9736 28.8818 12.0228 25.8054 11.9977 25.5991C11.9977 25.5991 12.0719 25.2117 11.7483 25.2117C11.7483 25.2117 11.4004 25.314 11.1775 25.1598C11.1775 25.1598 10.5802 25.1859 10.4559 24.6943C10.4559 24.6943 10.3559 24.385 10.5044 24.1242C10.5044 24.1242 10.779 23.5566 11.5748 23.7383C11.5748 23.7383 12.0228 23.8684 12.0719 23.5338L12.0485 22.2911C12.0485 22.2911 11.9476 21.9567 12.57 21.7763C12.57 21.7763 13.3658 22.0078 13.6137 21.5953C13.6137 21.5953 13.8881 21.025 14.1094 21.4126C14.1094 21.4126 14.584 21.8788 15.8771 21.8293C15.8771 21.8293 18.1162 21.6466 18.1654 21.748C18.1654 21.748 18.7127 21.8293 18.8612 22.0078L19.0106 22.033Z" fill="#12110C"/>
<path d="M19.0105 22.0015C19.0105 22.0015 19.1831 21.9261 19.2341 21.7969C19.2341 21.7969 19.7562 21.7441 19.8305 21.6668L21.4724 21.7969C21.4724 21.7969 23.0892 21.9261 23.7857 21.407C23.7857 21.407 24.036 21.407 24.2103 21.4858C24.2103 21.4858 24.5574 21.5637 24.6551 21.7164L25.6027 21.6911C25.6027 21.6911 26.1491 21.874 26.0983 22.2352V22.7C26.0983 22.7 25.999 23.6306 26.2477 23.6818H26.97C26.97 23.6818 27.5666 23.9669 27.4931 24.3283C27.4931 24.3283 27.5181 24.8432 26.996 24.948C26.996 24.948 26.4722 25.1022 26.3001 25.077C26.3001 25.077 26.125 25.3092 26.0983 25.5935L26.0248 28.9794C26.0248 28.9794 25.9749 29.3391 26.497 29.2888C26.497 29.2888 27.2671 29.2126 27.4931 29.6509C27.4931 29.6509 27.6926 30.3998 27.2945 30.5297L26.996 30.6841L26.3477 30.7889C26.3477 30.7889 26.0749 30.814 26.0508 31.3028V32.2093C26.0508 32.2093 26.0749 32.8288 25.6027 32.8288L24.9061 32.8809C24.9061 32.8809 24.7317 33.0353 24.3839 32.9321C24.3839 32.9321 20.155 33.01 20.0056 32.9564L19.5069 33.0611C19.5069 33.0611 18.9611 33.5784 18.5132 33.1885L18.1645 32.9042C18.1645 32.9042 17.9159 32.9564 17.8175 32.9321C17.7173 32.9042 13.1414 32.984 13.1414 32.984C13.1414 32.984 12.1704 33.0881 12.0962 32.7509C12.0962 32.7509 11.9726 31.4327 12.0217 31.2768C12.0217 31.2768 12.0217 30.8911 11.7974 30.8651C11.7974 30.8651 10.8281 30.814 10.8023 30.7099C10.8023 30.7099 10.28 30.3219 10.4291 29.9352C10.4291 29.9352 10.6043 29.4171 11.1266 29.3649C11.1266 29.3649 11.9217 29.4977 11.9217 29.2618C11.9217 29.2618 11.9726 29.1076 11.9726 28.851C11.9726 28.851 12.0217 25.7747 11.9976 25.5683C11.9976 25.5683 12.0718 25.1793 11.7473 25.1793C11.7473 25.1793 11.3996 25.2825 11.1758 25.129C11.1758 25.129 10.5794 25.1543 10.4551 24.6637C10.4551 24.6637 10.3542 24.3543 10.5043 24.0943C10.5043 24.0943 10.7772 23.5257 11.5738 23.7069C11.5738 23.7069 12.0217 23.8378 12.0718 23.5024L12.0468 22.2605C12.0468 22.2605 11.9468 21.9261 12.5691 21.7441C12.5691 21.7441 13.365 21.9772 13.6136 21.5637C13.6136 21.5637 13.8864 20.9945 14.1093 21.3802C14.1093 21.3802 14.5839 21.8465 15.8761 21.7969C15.8761 21.7969 18.1161 21.614 18.1645 21.7164C18.1645 21.7164 18.7127 21.7969 18.8611 21.9772L19.0105 22.0015Z" stroke="#12110C" stroke-width="0.0133333"/>
<path d="M19.6565 32.1862C19.6565 32.1862 19.956 32.0293 20.1554 32.083C20.3547 32.1343 23.2639 32.0578 23.2639 32.0578C23.2639 32.0578 24.5319 32.1601 24.7321 31.9773L25.0283 31.8751C25.0283 31.8751 25.1534 31.7209 25.1534 31.5154C25.1534 31.3067 25.1784 30.6089 25.1784 30.6089L25.2543 30.3525C25.2543 30.3525 25.2285 30.094 25.2543 23.1942C25.2543 23.1942 25.3519 22.6542 25.0283 22.3164C25.0283 22.3164 25.0283 22.1116 25.1276 22.1361C25.2285 22.1639 25.1784 22.1639 25.1784 22.1639C25.1784 22.1639 25.6256 22.0321 25.6991 22.2131C25.6991 22.2131 25.9 22.831 25.7249 23.1942C25.7249 23.1942 25.6748 23.9445 26.051 23.9445C26.051 23.9445 26.1979 24.1006 26.4966 24.0218C26.4966 24.0218 27.1431 24.1006 27.1431 24.3052C27.1431 24.3052 27.1431 24.7722 26.6951 24.6943L26.0971 24.7445C26.0971 24.7445 25.6991 24.8242 25.7499 25.3133C25.8008 25.8044 25.7249 29.3184 25.7249 29.3184C25.7249 29.3184 25.7249 29.7336 26.3481 29.7076C26.3481 29.7076 27.1182 29.6808 27.1182 29.9121C27.1182 29.9121 27.3166 30.4287 26.7703 30.4556C26.7703 30.4556 25.7249 30.4287 25.8008 30.738C25.8008 30.738 25.7249 31.4633 25.6748 31.5908C25.6748 31.5908 25.7766 32.1862 25.6499 32.2902C25.6499 32.2902 25.5764 32.6247 24.9056 32.5736C24.9056 32.5736 20.6284 32.5483 19.956 32.5996C19.956 32.5996 19.5572 32.5483 19.6565 32.1862Z" fill="white"/>
<path d="M18.8876 31.6963C18.8876 31.6963 19.3098 31.7726 19.3098 32.1868C19.3098 32.5993 19.3348 32.8324 19.0847 32.8836C18.8368 32.9355 18.564 32.8593 18.4905 32.5237C18.4139 32.1868 18.538 31.7726 18.8876 31.6963Z" fill="white"/>
<path d="M19.3839 31.4897C19.3839 31.4897 19.8311 31.1777 20.0054 31.2316C20.0054 31.2316 22.268 31.3849 22.9662 31.2582C23.6619 31.1283 23.239 31.2316 23.239 31.2316C23.239 31.2316 23.8365 31.2316 24.0091 30.9975C24.0091 30.9975 24.1842 30.9479 24.2835 31.1283L24.6548 31.5433C24.6548 31.5433 24.683 31.7991 24.2585 31.7731C24.2585 31.7731 20.2032 31.7731 20.0805 31.7991C20.0805 31.7991 19.3097 31.9265 19.3839 31.4897Z" fill="white"/>
<path d="M19.383 31.4908C19.383 31.4908 19.8302 31.1787 20.0044 31.2317C20.0044 31.2317 22.2687 31.3859 22.966 31.2593C23.6628 31.1286 23.2388 31.2317 23.2388 31.2317C23.2388 31.2317 23.837 31.2317 24.0098 30.9968C24.0098 30.9968 24.1842 30.9484 24.2842 31.1286L24.6555 31.5443C24.6555 31.5443 24.6829 31.8011 24.2591 31.7741C24.2591 31.7741 20.2039 31.7741 20.0795 31.8011C20.0795 31.8011 19.3087 31.9285 19.383 31.4908Z" stroke="#12110C" stroke-width="0.016"/>
<path d="M13.4895 22.3178C13.4895 22.3178 13.6639 22.3178 13.6387 22.6281L13.5881 30.4301C13.5881 30.4301 13.6639 30.9482 13.2409 31.2828C13.2409 31.2828 13.0156 31.5662 13.0156 31.1286L13.1173 23.1705C13.1173 23.1705 13.1409 22.5759 13.4895 22.3178Z" fill="white"/>
<path d="M13.4902 22.3181C13.4902 22.3181 13.6646 22.3181 13.641 22.6282L13.5887 30.4321C13.5887 30.4321 13.6646 30.9502 13.2408 31.2848C13.2408 31.2848 13.0146 31.5682 13.0146 31.1304L13.1165 23.1716C13.1165 23.1716 13.1406 22.5762 13.4902 22.3181Z" stroke="#12110C" stroke-width="0.016"/>
<path d="M13.092 22.371C13.092 22.371 12.7933 22.9404 12.8184 23.0704L12.7933 24.7993C12.7933 24.7993 12.7683 25.9103 12.7933 26.0402C12.8184 26.1686 12.7683 29.4245 12.7683 29.4245C12.7683 29.4245 12.7434 30.0431 12.7683 30.251V31.6456C12.7683 31.6456 12.7183 32.2668 13.1655 32.1092C13.1655 32.1092 17.5437 32.007 17.8181 32.0856C17.8181 32.0856 18.2145 32.1621 18.0675 32.3692C18.0675 32.3692 18.0675 32.5513 17.7914 32.4983C17.7914 32.4983 15.7275 32.7036 13.8628 32.6274C13.8628 32.6274 12.6191 32.7036 12.5432 32.5513C12.5432 32.5513 12.3454 32.5251 12.3454 31.7747C12.3454 31.7747 12.3454 31.0789 12.2969 30.9495C12.2969 30.9495 12.3454 30.5832 11.724 30.5085C11.724 30.5085 10.8537 30.6645 10.8286 30.1221C10.8286 30.1221 10.9522 29.7346 11.7989 29.785C11.7989 29.785 12.4205 29.8888 12.2969 29.3707L12.3704 25.5496C12.3704 25.5496 12.447 24.8748 12.0225 24.8479C12.0225 24.8479 11.6261 24.827 11.4994 24.8748C11.4994 24.8748 10.7787 24.8748 10.8286 24.4388C10.8286 24.4388 11.0773 23.9726 11.7989 24.0764C11.7989 24.0764 12.3454 24.179 12.3704 23.5348C12.3704 23.5348 12.3454 22.216 12.6432 22.1657C12.6432 22.1657 13.2665 22.189 13.092 22.371Z" fill="white"/>
<path d="M13.8366 30.92C13.8366 30.92 14.1852 31.3057 14.7584 31.2831L18.138 31.3334C18.138 31.3334 18.5135 31.361 18.4899 31.5655C18.4899 31.5655 18.4367 31.8751 17.9912 31.7719L13.9116 31.7208L13.4629 31.7491C13.4629 31.7491 13.1642 31.6956 13.6388 31.1019L13.8366 30.92Z" fill="white"/>
<path d="M13.8362 30.9198C13.8362 30.9198 14.1851 31.3063 14.7589 31.2828L18.1394 31.3341C18.1394 31.3341 18.5138 31.3608 18.4914 31.5661C18.4914 31.5661 18.4389 31.8765 17.9933 31.7743L13.9114 31.723L13.4625 31.7498C13.4625 31.7498 13.1647 31.6972 13.6384 31.1018L13.8362 30.9198Z" stroke="#12110C" stroke-width="0.016"/>
<path d="M24.2832 30.5838C24.2832 30.5838 24.5818 31.1792 24.7311 31.2605C24.7311 31.2605 25.0048 31.5934 24.9306 30.9997L24.9798 23.5582C24.9798 23.5582 24.9046 23.2992 24.9798 22.8874L24.6819 22.3188C24.6819 22.3188 24.3574 22.0607 24.3574 22.4732L24.3083 30.406L24.2832 30.5838Z" fill="white"/>
<path d="M24.2832 30.5836C24.2832 30.5836 24.5827 31.1781 24.7328 31.2603C24.7328 31.2603 25.0065 31.594 24.9322 30.9988L24.9814 23.5554C24.9814 23.5554 24.9063 23.298 24.9814 22.8863L24.6829 22.3171C24.6829 22.3171 24.3574 22.0596 24.3574 22.4721L24.3083 30.4057L24.2832 30.5836Z" stroke="#12110C" stroke-width="0.016"/>
<path d="M18.7625 27.0462C18.7625 27.0462 18.7875 27.6642 18.7117 28.2571C18.6713 28.5849 18.8124 30.0942 18.6866 30.8681C18.6866 30.8681 18.664 31.1271 18.1392 30.8958C18.1392 30.8958 14.9566 30.972 14.8573 30.8681C14.8573 30.8681 13.9873 30.8958 13.9121 30.4296C13.9121 30.4296 14.0364 26.8903 13.9622 26.7587C13.9622 26.7587 13.9121 24.8217 13.9622 24.6415C13.9622 24.6415 14.0364 22.8589 13.9873 22.6525C13.9873 22.6525 14.0123 22.239 13.9372 22.0313C13.9372 22.0313 13.9372 21.773 14.3609 21.9274C14.3609 21.9274 14.5079 22.2124 15.3296 22.0858C15.3296 22.0858 15.9276 22.1881 16.5 22.1101C16.5 22.1101 17.7672 22.007 18.0917 22.1101C18.0917 22.1101 18.5897 22.007 18.7365 22.5771L18.7117 24.1777L18.8601 24.6943L19.0353 24.5659L19.1088 24.1777L19.1338 22.4723C19.1338 22.4723 19.2331 22.1612 19.6326 22.1101C19.6326 22.1101 20.2542 22.0313 20.3551 22.0858C20.4544 22.1353 21.795 22.2124 22.1704 22.1353C22.5424 22.058 22.6159 22.3934 23.7372 21.8007C23.7372 21.8007 24.0358 21.8267 24.0358 22.0313C24.0358 22.0313 23.9341 24.2307 24.0358 24.6415C24.0358 24.6415 24.0358 28.6713 23.9583 28.9556L24.0091 30.2475C24.0091 30.2475 24.0584 30.8163 23.1898 30.8681C23.1898 30.8681 23.7372 30.946 20.3026 30.8428C20.3026 30.8428 19.7562 30.8163 19.1596 31.0996C19.1596 31.0996 19.0353 31.0744 19.0353 30.739C19.0353 30.739 19.1338 29.5258 19.0353 28.335L18.987 27.0179L18.7625 27.0462Z" fill="white"/>
<path d="M16.523 25.212C16.523 25.212 16.5981 27.1232 16.523 27.3812L16.4996 27.7956C16.4996 27.7956 16.5981 28.0781 16.7475 28.1829C16.7475 28.1829 16.8726 28.5434 16.5731 28.5183C16.5731 28.5183 15.9524 28.4662 15.803 28.4907C15.803 28.4907 15.4535 28.4907 15.803 28.0285C15.803 28.0285 15.9273 27.8448 15.9016 27.3812C15.9016 27.3812 15.9016 25.212 15.9524 25.0838C15.9524 25.0838 16.0016 24.7978 15.8271 24.7199L15.5277 24.7467L15.1564 25.1081C15.1564 25.1081 15.0805 25.4973 14.9062 25.0838V24.8751L15.1315 24.2554L15.2809 24.2284C15.2809 24.2284 15.5035 24.3838 15.7021 24.4373H16.8726L17.2947 24.2284C17.2947 24.2284 17.4682 24.2554 17.4207 24.4877C17.4207 24.4877 17.4932 25.0838 17.1704 25.1594C17.1704 25.1594 16.9711 25.0838 16.8726 24.7978C16.8726 24.7978 16.5489 24.6185 16.523 25.212Z" fill="#12110C"/>
<path d="M22.019 24.5156C22.019 24.5156 21.0754 24.4375 21.052 25.4965C21.052 25.4965 20.9495 26.2218 21.9956 26.6873C21.9956 26.6873 22.7673 27.073 22.7156 27.5636C22.7156 27.5636 22.6163 28.4423 21.7954 28.0036C21.7954 28.0036 21.3983 27.7956 21.4248 27.5636C21.4248 27.5636 21.2983 27.2785 21.1497 27.3311C21.1497 27.3311 20.9745 27.3816 21.052 28.2351C21.052 28.2351 21.052 28.5713 21.4248 28.2351L21.621 28.2879C21.621 28.2879 22.2934 28.8563 22.8642 28.1572C22.8642 28.1572 23.4873 27.5636 23.0384 26.8407C23.0384 26.8407 22.7156 26.3259 22.1442 26.0668C22.1442 26.0668 21.5968 25.8061 21.4734 25.3674C21.4734 25.3674 21.6477 24.591 22.3177 25.0044C22.3177 25.0044 22.5671 25.3148 22.7156 25.3674C22.7156 25.3674 22.915 25.3674 22.8642 24.9004L22.8172 24.5156C22.8172 24.5156 22.7673 24.2279 22.4177 24.5156C22.4177 24.5156 22.0941 24.643 22.019 24.5156Z" fill="#12110C"/>
<path d="M18.986 23.9701C19.1595 24.1017 19.1846 24.3592 19.1846 24.3592C19.6819 25.7275 20.1057 27.7188 20.1057 27.7188C20.2291 27.9746 20.4536 28.1826 20.4536 28.1826C20.8765 28.3368 20.4536 28.4652 20.4536 28.4652C20.2792 28.544 19.7086 28.4416 19.7086 28.4416C19.4082 28.3864 19.5318 28.2857 19.5318 28.2857C19.6575 28.1566 19.5575 27.6383 19.5575 27.6383C19.5318 27.4338 19.3098 27.0968 19.3098 27.0968C19.2105 27.0446 19.0361 27.2771 19.0361 27.2771C19.0361 27.2771 18.7633 27.381 18.7366 27.2771C18.7116 27.1721 18.5381 27.0742 18.5381 27.0742C18.2394 27.0742 18.116 27.8445 18.116 27.8445C18.2895 28.4912 18.116 28.3864 18.116 28.3864C17.9675 28.5953 17.4936 28.4416 17.4936 28.4416C17.27 28.3864 17.4208 28.2062 17.4208 28.2062C17.6929 28.1566 17.7671 27.8445 17.7671 27.8445C17.8924 27.6643 18.6866 24.3064 18.6866 24.3064C18.7633 24.1503 18.8116 23.8409 18.986 23.9701ZM18.5898 25.6747C18.5639 25.8047 18.3887 26.5282 18.3887 26.5282L18.5381 26.789C18.5381 26.789 18.9368 26.8125 19.0853 26.8125C19.233 26.8125 19.2597 26.6859 19.2597 26.5541C19.2597 26.4261 18.986 25.6512 18.986 25.6512L18.8602 25.496L18.5898 25.6747Z" fill="#12110C"/>
<path d="M12.2489 17.7142C12.2489 17.7142 11.9745 18.6205 10.7558 17.6882L6.57761 17.5841C6.57761 17.5841 6.03041 17.767 5.95527 17.1718C5.95527 17.1718 6.05546 15.9844 6.00372 15.8803C6.00372 15.8803 6.03041 15.5432 5.4823 15.5432C5.4823 15.5432 4.63801 15.6488 4.61369 14.8734C4.61369 14.8734 4.46359 14.044 5.6324 14.0725C5.6324 14.0725 6.00372 14.2528 6.03041 13.7616C6.03041 13.7616 5.98032 10.4033 6.00372 10.1435C6.00372 10.1435 6.10537 9.83662 5.53313 9.78363C5.53313 9.78363 4.71132 9.9631 4.61369 9.39468C4.61369 9.39468 4.56286 8.54366 5.10933 8.49087C5.10933 8.49087 5.78104 8.54366 5.90609 8.36495C5.90609 8.36495 6.05546 8.46485 6.03041 7.8442L6.05546 6.78617C6.05546 6.78617 6.13042 6.50187 6.55092 6.52789C6.55092 6.52789 7.32428 6.57897 7.42428 6.50187C7.42428 6.50187 7.59797 6.27055 7.64551 6.16553C7.64551 6.16553 8.0459 6.14122 8.12012 6.24187C8.12012 6.24187 8.71577 6.65779 10.9815 6.50187C10.9815 6.50187 11.3278 6.50187 11.403 6.60594C11.403 6.60594 11.8251 6.94115 12.0738 6.57897C12.0738 6.57897 12.4467 6.50187 13.5669 6.52789C13.5669 6.52789 14.7834 6.86328 15.6303 6.14122L15.9031 6.1942C15.9031 6.1942 16.251 6.78617 16.502 6.60594C16.502 6.60594 17.247 6.52789 17.3721 6.68381C17.3721 6.68381 17.6214 7.07124 17.4947 8.07989C17.4947 8.07989 17.347 8.51841 18.0679 8.51841C18.0679 8.51841 18.8879 8.36495 18.7895 9.16241C18.7895 9.16241 19.0139 10.0672 17.6458 9.93879C17.6458 9.93879 17.4706 10.1978 17.4947 10.3783C17.4947 10.3783 17.4706 13.3222 17.4463 13.66C17.4463 13.66 17.4222 14.1221 18.0187 14.0985C18.0187 14.0985 18.8146 14.044 18.8387 14.7963C18.8387 14.7963 18.938 15.7772 17.7949 15.5953C17.7949 15.5953 17.4463 15.6488 17.3955 15.8803L17.347 17.1718C17.347 17.1718 17.3721 17.8181 16.6739 17.6639C16.5746 17.6639 12.7963 17.7402 12.4716 17.6388C12.4716 17.6388 12.2981 17.6128 12.2489 17.7142Z" fill="#12110C"/>
<path d="M12.2486 17.7161C12.2486 17.7161 11.9742 18.6225 10.7554 17.69L6.57656 17.5861C6.57656 17.5861 6.02918 17.7688 5.95422 17.1729C5.95422 17.1729 6.05514 15.9855 6.0034 15.8815C6.0034 15.8815 6.02918 15.5453 5.48106 15.5453C5.48106 15.5453 4.63677 15.6509 4.61263 14.8753C4.61263 14.8753 4.46327 14.0451 5.63208 14.0736C5.63208 14.0736 6.0034 14.2541 6.02918 13.7635C6.02918 13.7635 5.97908 10.4037 6.0034 10.1446C6.0034 10.1446 6.10505 9.83678 5.53207 9.78474C5.53207 9.78474 4.71026 9.9644 4.61263 9.39503C4.61263 9.39503 4.56181 8.54382 5.10901 8.49198C5.10901 8.49198 5.7798 8.54382 5.90577 8.36454C5.90577 8.36454 6.05514 8.46596 6.02918 7.84531L6.05514 6.78633C6.05514 6.78633 6.12936 6.50222 6.5506 6.529C6.5506 6.529 7.32322 6.57932 7.42323 6.50222C7.42323 6.50222 7.59765 6.27166 7.64518 6.16663C7.64518 6.16663 8.04466 6.14156 8.1198 6.24298C8.1198 6.24298 8.71472 6.65814 10.9812 6.50222C10.9812 6.50222 11.3275 6.50222 11.4026 6.6061C11.4026 6.6061 11.8248 6.94149 12.0734 6.57932C12.0734 6.57932 12.4471 6.50222 13.5666 6.529C13.5666 6.529 14.784 6.86268 15.63 6.14156L15.9035 6.19436C15.9035 6.19436 16.2514 6.78633 16.5017 6.6061C16.5017 6.6061 17.2467 6.529 17.3734 6.68321C17.3734 6.68321 17.6211 7.07159 17.4953 8.07929C17.4953 8.07929 17.3467 8.51951 18.0676 8.51951C18.0676 8.51951 18.8892 8.36454 18.7892 9.16276C18.7892 9.16276 19.0135 10.0683 17.6462 9.93914C17.6462 9.93914 17.4703 10.1982 17.4953 10.3794C17.4953 10.3794 17.4703 13.3233 17.4469 13.6604C17.4469 13.6604 17.4218 14.124 18.0184 14.1006C18.0184 14.1006 18.8142 14.0451 18.8393 14.7982C18.8393 14.7982 18.9377 15.7783 17.7946 15.5964C17.7946 15.5964 17.4469 15.6509 17.3961 15.8815L17.3467 17.1729C17.3467 17.1729 17.3734 17.8201 16.6744 17.6657C16.5752 17.6657 12.796 17.7413 12.4713 17.6399C12.4713 17.6399 12.2978 17.6146 12.2486 17.7161Z" stroke="#12110C" stroke-width="0.0133333"/>
<path d="M7.54759 7.0721C7.54759 7.0721 7.59768 7.58772 7.59768 7.71686C7.59768 7.84601 7.52181 15.1836 7.52181 15.1836C7.52181 15.1836 7.59768 15.7538 7.12398 16.0364C7.12398 16.0364 7.00039 16.0892 6.97461 15.7277L7.02544 7.97686C7.02544 7.97686 7.07462 7.02006 7.54759 7.0721Z" fill="white"/>
<path d="M7.5485 7.07168C7.5485 7.07168 7.59841 7.5873 7.59841 7.71644C7.59841 7.84559 7.52254 15.184 7.52254 15.184C7.52254 15.184 7.59841 15.7541 7.12398 16.0384C7.12398 16.0384 7.00039 16.0905 6.97461 15.729L7.02379 7.9772C7.02379 7.9772 7.07388 7.0204 7.5485 7.07168Z" stroke="#12110C" stroke-width="0.016"/>
<path d="M6.72631 16.1129C6.72631 16.1129 6.77476 8.82729 6.75136 8.6972C6.72631 8.56976 6.77476 8.80203 6.77476 8.80203C6.77476 8.80203 6.70218 7.53756 7.02486 7.01947C7.02486 7.01947 6.92486 6.58 6.35261 7.12164L6.32994 8.18157C6.32994 8.18157 6.32994 8.77601 5.80614 8.74999C5.80614 8.74999 5.20885 8.72321 4.93442 9.00923C4.93442 9.00923 4.78579 9.5767 5.35657 9.47453C5.35657 9.47453 6.25334 9.47452 6.30252 9.8593L6.25334 13.7617C6.25334 13.7617 6.45262 14.4074 5.75532 14.4074C5.75532 14.4074 4.91011 14.3579 4.93442 14.9005C4.93442 14.9005 5.10866 15.3657 5.83119 15.2098C5.83119 15.2098 6.35261 15.3137 6.32994 15.8278V16.8122C6.32994 16.8122 6.27747 17.2003 6.77476 17.2239H10.6556C10.6556 17.2239 10.8544 17.2497 10.8544 16.9907C10.8544 16.9907 10.8291 16.7869 10.5322 16.7869L7.3002 16.7333C7.3002 16.7333 6.77476 16.9145 6.72631 16.1129Z" fill="white"/>
<path d="M7.39857 16.1658C7.39857 16.1658 7.30002 16.5289 7.67134 16.4491H10.2333L10.9299 16.6035C10.9299 16.6035 11.6531 16.4231 10.9299 16.0089C10.9299 16.0089 8.6416 16.0366 8.44214 15.9846C8.44214 15.9846 7.97081 15.8556 7.87081 15.8294C7.87081 15.8294 7.62143 15.7272 7.39857 16.1658Z" fill="white"/>
<path d="M7.39759 16.1662C7.39759 16.1662 7.29905 16.5308 7.67037 16.4495H10.2332L10.9307 16.6055C10.9307 16.6055 11.6538 16.4252 10.9307 16.0103C10.9307 16.0103 8.64136 16.0378 8.44208 15.9843C8.44208 15.9843 7.96984 15.8559 7.86983 15.8308C7.86983 15.8308 7.62027 15.7277 7.39759 16.1662Z" stroke="#12110C" stroke-width="0.016"/>
<path d="M11.6519 16.5299C11.6519 16.5299 11.1782 16.5299 11.2031 17.1722C11.2031 17.1722 11.2532 17.666 11.7496 17.666C11.7496 17.666 12.1977 17.5857 12.1492 17.0716C12.1492 17.0716 11.8746 16.4243 11.6519 16.5299Z" fill="white"/>
<path d="M11.9993 16.2685C11.9993 16.2685 12.2222 16.0102 12.373 16.0102C12.373 16.0102 14.8592 16.2434 15.2821 15.9338C15.2821 15.9338 15.6566 15.8567 15.7544 15.9338C15.7544 15.9338 16.1273 16.2434 16.1273 16.4236C16.1273 16.4236 16.103 16.6584 15.6566 16.5292C15.6566 16.5292 12.8436 16.5535 12.6959 16.5535C12.6959 16.5535 11.9242 16.7338 11.9993 16.2685Z" fill="white"/>
<path d="M11.9983 16.2676C11.9983 16.2676 12.2219 16.0086 12.372 16.0086C12.372 16.0086 14.859 16.2425 15.2819 15.933C15.2819 15.933 15.6572 15.8551 15.7549 15.933C15.7549 15.933 16.1278 16.2425 16.1278 16.4235C16.1278 16.4235 16.1037 16.6585 15.6572 16.5284C15.6572 16.5284 12.8443 16.5536 12.6949 16.5536C12.6949 16.5536 11.9232 16.7339 11.9983 16.2676Z" stroke="#12110C" stroke-width="0.016"/>
<path d="M12.3975 17.0431C12.3975 17.0431 12.3975 16.8376 12.7437 16.8376L16.2284 16.8108C16.2284 16.8108 16.5504 16.9894 16.5504 16.3714C16.5504 16.3714 16.678 13.5541 16.6893 10.4534C16.6941 9.53113 16.7328 8.56274 16.699 7.66538C16.699 7.66538 16.6248 7.2789 16.5255 7.19914C16.5255 7.19914 16.5255 6.78588 16.95 6.94256C16.95 6.94256 17.3204 6.96706 17.2219 7.56055L17.2462 8.46531C17.2462 8.46531 17.172 8.85274 17.8435 8.74962C17.8435 8.74962 18.5143 8.85274 18.5384 9.11103C18.5384 9.11103 18.7395 9.62912 17.9444 9.57633H17.3729C17.3729 9.57633 17.1235 9.73073 17.1978 10.0418L17.1235 13.7872C17.1235 13.7872 17.0718 14.4329 17.6707 14.4093C17.6707 14.4093 18.2923 14.3826 18.415 14.5888C18.415 14.5888 18.8395 15.2353 17.9186 15.1834C17.9186 15.1834 17.3462 15.1565 17.2219 15.2596C17.2219 15.2596 17.1235 15.3912 17.0484 16.6038C17.0484 16.6038 17.0976 17.3274 16.5754 17.2493C16.5754 17.2493 13.1182 17.2997 12.7962 17.2233C12.7962 17.2233 12.4466 17.3274 12.3975 17.0431Z" fill="white"/>
<path d="M7.91842 6.83744L7.84584 15.1317C7.84584 15.1317 7.8208 15.5166 8.44222 15.5945C8.44222 15.5945 9.16475 15.6726 9.33753 15.5945C9.33753 15.5945 9.80885 15.5694 11.0285 15.6215C11.0285 15.6215 11.3272 15.9299 11.3514 15.5444C11.3514 15.5444 11.5508 8.82549 11.4514 7.43112C11.4514 7.43112 11.4272 6.83744 11.0027 6.81143C11.0027 6.81143 9.11393 6.96583 8.93951 6.81143L8.19449 6.60423C8.19449 6.60423 7.89429 6.62873 7.91842 6.83744Z" fill="white"/>
<path d="M15.8036 7.14775L15.7793 15.3128C15.7793 15.3128 15.9788 16.0383 16.3033 15.961C16.3033 15.961 16.3525 15.8051 16.3768 15.5451L16.4777 7.76745C16.4777 7.76745 16.2281 6.5271 15.8036 7.14775Z" fill="white" stroke="#12110C" stroke-width="0.016"/>
<path d="M15.8036 7.14775L15.7793 15.3128C15.7793 15.3128 15.9788 16.0383 16.3033 15.961C16.3033 15.961 16.3525 15.8051 16.3768 15.5451L16.4777 7.76745C16.4777 7.76745 16.2281 6.5271 15.8036 7.14775Z" stroke="#12110C" stroke-width="0.016"/>
<path d="M11.8516 7.21694C11.8516 7.21694 11.7767 11.1176 11.8001 11.2485L11.7531 14.5303L11.6523 15.6639C11.6523 15.6639 11.8001 15.8996 11.9251 15.7434C11.9251 15.7434 12.7219 15.538 13.219 15.6145C13.219 15.6145 14.8116 15.7704 15.1337 15.5112C15.1337 15.5112 15.3824 15.6396 15.4573 15.2261C15.4573 15.2261 15.5559 7.99332 15.5065 7.86341C15.5065 7.86341 15.6067 6.83122 15.5559 6.72904C15.5559 6.72904 15.5308 6.49411 15.1103 6.6996C15.1103 6.6996 15.1586 6.90832 12.7968 6.83122C12.7968 6.83122 11.901 6.80444 11.8516 7.21694Z" fill="white"/>
<path d="M11.0828 9.60698L10.8577 10.1C10.8577 10.1 10.3127 12.6046 10.0149 13.1203C10.0149 13.1203 9.96477 13.6385 9.54189 13.2241C9.54189 13.2241 8.5709 10.0472 8.52153 9.94332L8.19793 9.71086C8.19793 9.71086 8.00176 9.42675 8.34803 9.40149L9.2682 9.42675C9.2682 9.42675 9.56602 9.68409 9.16892 9.97162C9.16892 9.97162 9.21829 10.3843 9.74044 11.9582C9.74044 11.9582 9.88889 12.5526 10.0633 12.1131L10.5613 10.2785L10.412 9.73612C10.412 9.73612 10.2619 9.47784 10.4871 9.45277C10.4871 9.45277 11.0094 9.40149 11.0828 9.60698Z" fill="#12110C"/>
<path d="M12.5269 10.0204L12.5002 12.759L12.4276 12.9653C12.4276 12.9653 12.1782 13.2999 12.3517 13.3267C12.3517 13.3267 12.1298 13.4826 13.9427 13.5077C13.9427 13.5077 14.6409 13.636 14.4658 12.7062C14.4658 12.7062 14.3915 12.3706 14.1412 12.8621C14.1412 12.8621 14.067 13.2737 13.1735 13.1455C13.1735 13.1455 12.9741 12.9653 12.9741 12.759V11.6212C12.9741 11.6212 12.9476 11.336 13.3712 11.3654C13.3712 11.3654 13.8434 11.674 13.9186 11.5432C13.9186 11.5432 14.0921 11.1314 13.9186 10.8724C13.9186 10.8724 13.694 10.8481 13.6699 10.9512C13.6699 10.9512 13.5205 11.2596 13.0977 11.0786C13.0977 11.0786 12.8991 10.6661 13.0233 10.3298C13.0233 10.3298 12.9741 9.68349 13.3971 9.7361C13.3971 9.7361 13.8942 9.83847 13.9427 9.99534C13.9427 9.99534 14.067 10.3064 14.193 9.94425L14.067 9.50307C14.067 9.50307 13.9944 9.32189 13.8692 9.37393C13.8692 9.37393 13.0233 9.50307 12.9225 9.39824L12.2508 9.47705C12.2508 9.47705 12.1525 9.7361 12.4519 9.86372C12.4519 9.86372 12.5269 9.91652 12.5269 10.0204Z" fill="#12110C"/>
</g>
</g>
<defs>
<clipPath id="clip0_665_102606">
<rect width="148" height="41" fill="white" transform="translate(3 0.205078)"/>
</clipPath>
</defs>
</svg>
